<?xml version="1.0" encoding="utf-8"?>
<!-- Generator: Adobe Illustrator 22.0.1, SVG Export Plug-In . SVG Version: 6.00 Build 0)  -->
<svg version="1.1" id="Layer_1" xmlns="http://www.w3.org/2000/svg" xmlns:xlink="http://www.w3.org/1999/xlink" x="0px" y="0px"
	 width="250px" height="33px" viewBox="0 0 250 33" style="enable-background:new 0 0 250 33;" xml:space="preserve">
<style type="text/css">
	.st0{clip-path:url(#SVGID_2_);fill:#00A1DF;}
	.st1{clip-path:url(#SVGID_2_);}
</style>
<g>
	<defs>
		<rect id="SVGID_1_" y="0.2" width="250" height="32.5"/>
	</defs>
	<clipPath id="SVGID_2_">
		<use xlink:href="#SVGID_1_"  style="overflow:visible;"/>
	</clipPath>
	<path class="st0" d="M41.4,16c-0.2,3-1.4,8.2-6.9,8.2h0c0,0-20.4,0-20.4,0c-5.5,0-6.7-5.2-6.9-8.2C7.1,15.4,7,14.7,7,14
		c0-0.7,0-1.3,0.1-1.8c0.1-2.9,1.1-8.8,6.8-8.9v0H14c0.1,0,0.1,0,0.2,0h11.4l8.8,0c0.1,0,0.3,0,0.3,0v0c5.7,0,6.6,6,6.8,8.9
		c0,0.5,0.1,1.1,0.1,1.8C41.5,14.7,41.4,15.5,41.4,16 M46.3,12c-0.1-3.2-1-9.6-6.2-9.7v0h-0.1c-0.1,0-0.1,0-0.2,0H29.5H19H8.6
		c-0.1,0-0.1,0-0.2,0H8.3v0C3.2,2.4,2.3,8.9,2.2,12c0,0.5-0.1,1.2-0.1,1.9c0,0.9,0,1.6,0.1,2.2c0.2,3.3,1.3,9,6.3,9v0h0h0h10.2h10.9
		H40h0h0v0c5,0,6.1-5.7,6.3-9c0-0.6,0.1-1.3,0.1-2.2C46.4,13.2,46.4,12.6,46.3,12"/>
	<polygon class="st0" points="28.8,19.3 37.7,21.4 37.7,21.4 37.7,19.3 28.8,19.3 	"/>
	<path class="st0" d="M37.7,5.9C37.7,5.8,37.7,5.8,37.7,5.9L37.7,5.9L37.7,5.9L10.9,8.6h0h0c0,0-0.1,0-0.1,0.1c0,0,0,0.1,0,0.1
		c0,0,0,0,0,0v0l0,0h0l12,2.5c1.1,0.2,1.9,0.9,1.9,1.6c0,0.6-0.6,1-1.3,1.3c0,0-0.1,0-0.1,0c0,0,0,0-0.1,0L23,14.2l-12.1,2.1h0
		c0,0-0.1,0-0.1,0.1c0,0,0,0.1,0.1,0.1c0,0,0,0,0,0l0,0l26.8-2.8v0c0,0,0.1,0,0.1-0.1c0,0,0-0.1-0.1-0.1v0l-11.8-2.4
		c-0.7-0.2-1.1-0.3-1.4-0.5c-0.4-0.3-0.7-0.7-0.7-1.1c0-0.7,0.8-1.2,1.8-1.4L37.7,5.9L37.7,5.9C37.7,5.9,37.7,5.9,37.7,5.9"/>
	<path class="st0" d="M10.9,17L10.9,17L10.9,17L10.9,17z M37.7,21.8L37.7,21.8L25.6,19v0c-0.7-0.2-1.3-0.7-1.2-1.2
		c0-0.5,0.6-1,1.3-1.1l12-2.4v0c0,0,0.1,0,0.1-0.1c0,0,0-0.1-0.1-0.1h0L10.9,17h0h0h0c0,0-0.1,0-0.1,0.1c0,0,0,0.1,0,0.1L37.7,22
		l0,0C37.7,22,37.7,22,37.7,21.8C37.7,21.9,37.7,21.9,37.7,21.8"/>
	<path class="st1" d="M53.5,18.1l0.2,2.8c0.9,1.5,3.4,2.5,5,2.5c2.7,0,5-1.4,5-4.2c0-1.4-0.8-2.4-2.7-3l-4.5-1.3
		C54,14.1,52,12.2,52,9.4c0-5.1,3.8-7.1,8.5-7.1c2,0,4.1,0.4,6,1.1l0.2,0.4c-0.3,1-0.4,2.9-0.4,4.6h-1.3l-0.2-2.6
		c-1-1.1-2.8-1.8-4.3-1.8c-3,0-4.4,1.7-4.4,3.9c0,1.4,1,2.5,3.4,3.1l3.7,1c3,0.8,4.8,2.6,4.8,5.5c0,5.5-4.5,7.7-9.4,7.7
		c-2.3,0-4.6-0.5-6.7-1.5c0.4-1.9,0.5-3.7,0.5-5.5H53.5z"/>
	<path class="st1" d="M71.2,14.4c0-1.8-0.1-2.2-0.8-2.2l-1.4-0.1v-1.2c2.2-0.1,4.1-0.8,6-1.4l0.2,0.2v2.4l2.6-2
		c0.8-0.6,1.7-0.6,2.4-0.6c1.9,0,3.5,0.8,4.1,2.6l2.6-2c0.8-0.6,1.7-0.6,2.4-0.6c3.4,0,4.5,1.7,4.5,5.9v6c0,0.8,0,1.2,0.1,1.5
		c0.1,0.3,0.4,0.5,1,0.5l1.1,0.1v1.2c-1.2,0-2.1-0.1-3.1-0.1c-1,0-2,0.1-3,0.1V16c0-1.6-0.3-2.4-0.8-3c-0.5-0.5-1.3-0.7-2-0.7
		c-1.3,0-2.5,1.3-2.5,2.2v7c0,0.8,0,1.2,0.1,1.5c0.1,0.3,0.4,0.5,1,0.5l1.1,0.1v1.2c-1.4,0-2.7-0.1-4.3-0.1c-1.4,0-2.8,0.1-4,0.1
		v-1.2l1-0.1c0.7,0,0.9-0.2,1-0.5c0.1-0.3,0.1-0.7,0.1-1.5V16c0-1.6-0.3-2.4-0.8-3c-0.5-0.5-1.3-0.7-2-0.7c-1.3,0-2.5,1.3-2.5,2.2v7
		c0,0.8,0,1.2,0.1,1.5c0.1,0.3,0.4,0.5,1,0.5l0.9,0.1v1.2c-1.1,0-2.5-0.1-4.1-0.1c-1.4,0-2.8,0.1-4.1,0.1v-1.2l1.1-0.1
		c0.7-0.1,0.9-0.2,1-0.5c0.1-0.3,0.1-0.7,0.1-1.5V14.4z"/>
	<path class="st1" d="M96.8,14.4c0-1.8-0.1-2.2-0.8-2.2l-1.4-0.1v-1.2c1.2-0.2,2.4-0.3,3.6-0.7l2.2-0.7l0.3,0.2v8.4
		c0,2.1,0.1,4.2,2.6,4.2c1.1,0,2.1-0.7,2.7-1.6c0.2-0.4,0.3-0.8,0.3-1.3v-5c0-1.8-0.1-2.2-0.8-2.2l-1.4-0.1v-1.2
		c1.2-0.2,2.4-0.3,3.6-0.7l2.2-0.7l0.3,0.2v11.7c0,0.8,0,1.2,0.1,1.5c0.1,0.3,0.4,0.5,1,0.5l1.1,0.1v1.2c-1.3,0-2.7-0.1-3.6-0.1
		c-0.5,0-1.4,0.1-2.7,0.1l0.2-2.7l-2.4,2.4c-0.4,0.4-1.3,0.7-2.1,0.7c-3.5,0-5-2-5-5V14.4z"/>
	<path class="st1" d="M115.7,14.4c0-1.8-0.1-2.2-0.8-2.2l-1.4-0.1v-1.2c1.2-0.2,2.4-0.3,3.6-0.7l2.2-0.7l0.3,0.2v3l1.4-1.5
		c0.9-1,1.6-1.7,2.5-1.7c0.6,0,1,0,1.4,0.2l-0.2,4.1l-0.8,0.3c-0.4-0.8-1.1-1.2-1.9-1.2c-1.2,0-2.5,1.2-2.5,2.1v6.3
		c0,0.8,0,1.2,0.1,1.5c0.1,0.3,0.7,0.5,1.4,0.5l1.2,0.1v1.2c-1.9,0-3.2-0.1-4.8-0.1c-1.4,0-2.8,0.1-4.1,0.1v-1.2l1.1-0.1
		c0.7-0.1,0.9-0.2,1-0.5c0.1-0.3,0.1-0.7,0.1-1.5V14.4z"/>
	<path class="st1" d="M137,4.8L136.5,5c-0.6-0.4-1.3-0.8-2-0.8c-2,0-2,1.3-2,3v3.5c1.4,0,2.9-0.1,4.2-0.1l0.1,0.3l-0.4,1.9h-4v8.7
		c0,0.8,0,1.2,0.1,1.5c0.1,0.3,0.8,0.5,1.5,0.5l1.4,0.1v1.2c-2.1,0-3.5-0.1-5.1-0.1c-1.4,0-2.8,0.1-4.5,0.1v-1.2l1.3-0.1
		c0.7,0,1.1-0.2,1.2-0.5c0.1-0.3,0.1-0.7,0.1-1.5v-8.7l-2.5,0.2v-0.8c0.9-0.4,1.8-0.9,2.5-1.4V9.2c0-2.5,0.2-3,1.8-4.4l2.4-2
		c1.5-1.2,2.2-1.3,3-1.3c0.4,0,0.9,0.1,1.3,0.2V4.8z"/>
	<path class="st1" d="M144.8,4.4c0,1.3-1.1,2.4-2.4,2.4c-1.3,0-2.4-1.1-2.4-2.4c0-1.4,1.1-2.4,2.4-2.4C143.7,2,144.8,3,144.8,4.4
		 M140.5,14.4c0-1.8-0.1-2.2-0.8-2.2l-1.4-0.1v-1.2c1.2-0.2,2.4-0.3,3.6-0.7l2.2-0.7l0.3,0.2v11.7c0,0.8,0,1.2,0.1,1.5
		c0.1,0.3,0.4,0.5,1,0.5l1.1,0.1v1.2c-1.4,0-2.7-0.1-4.3-0.1c-1.4,0-2.8,0.1-4.1,0.1v-1.2l1.1-0.1c0.7-0.1,0.9-0.2,1-0.5
		c0.1-0.3,0.1-0.7,0.1-1.5V14.4z"/>
	<path class="st1" d="M148.5,12.6l-2.1,0.1v-0.7l2.1-1.4V8.8c0-1-0.1-2-0.1-2.9c1.4-0.5,3-1.2,3.9-1.6l0.5,0.3
		c-0.3,1.3-0.4,2.9-0.4,4.4v1.9l3.7-0.2l-0.3,2.1h-3.4v7.6c0,1.6,0.5,2.1,2,2.1c0.7,0,1-0.2,1.5-0.4l0.3,0.6l-1.6,1.9
		c-0.2,0.3-0.9,0.6-2,0.6c-2.9,0-4.1-1.2-4.1-4.1V12.6z"/>
	<path class="st1" d="M164.2,7.2c0-1.3,0-2.2-0.2-2.6c-0.1-0.3-0.5-0.4-1.3-0.4l-1.2-0.1V2.8c1.3,0,3.1,0.1,5,0.1
		c1.9,0,3.7-0.1,5-0.1v1.3l-1.2,0.1c-0.8,0.1-1.2,0.2-1.3,0.4c-0.2,0.4-0.2,1.3-0.2,2.6v5.9c0,0.1,0.1,0.2,0.3,0.2l6-5.9
		c0.8-0.8,1.8-1.9,2.5-2.7c0.4-0.4,0.5-0.8,0.5-1.2V2.8c1,0,2,0.1,2.9,0.1c1,0,2-0.1,2.9-0.1v1.3c-1.3,0.1-2.6,0.2-3.5,1.1l-7.1,6.6
		l8.5,10c0.7,0.8,1.5,1.6,2.9,1.6v1.3c-1.1,0-2.1-0.1-3.2-0.1c-1.1,0-2.2,0.1-3.3,0.1l-6.7-8c-0.7-0.9-1.8-2.2-2.4-2.5
		c-0.3,0-0.4,0.2-0.4,0.3v5.8c0,1.3,0,2.2,0.2,2.6c0.1,0.3,0.5,0.4,1.3,0.4l1.2,0.1v1.3c-1.3,0-3.1-0.1-5-0.1c-1.9,0-3.7,0.1-5,0.1
		v-1.3l1.2-0.1c0.8-0.1,1.2-0.2,1.3-0.4c0.2-0.4,0.2-1.3,0.2-2.6V7.2z"/>
	<path class="st1" d="M193.5,17.2l-1.4,0.4c-1.7,0.5-3,0.8-3,2.9c0,1.3,0.8,1.9,1.7,1.9c1,0,2.3-0.8,2.7-1.4V17.2z M193.5,15.8
		c0-2.2-0.9-3.8-3.3-3.8c-0.5,0-1.7,0.2-1.8,0.4l-0.7,1.6l-1-0.2v-2.2l1.7-1c1.4-0.8,2.7-1.1,3.7-1.1c2.8,0,5.4,1.3,5.3,4.7
		c0,1.3-0.1,2.6-0.1,3.9c0,1.3,0.1,2.7,0.1,4c0,0.8,0.2,1.2,0.9,1.3l1,0.1v1.2c-1,0-1.9-0.1-2.8-0.1c-0.9,0-1.8,0.1-2.9,0.1
		l-0.2-0.3l0.2-2l-3,2.3c-0.5,0.4-1.2,0.4-1.8,0.4c-2.4,0-3.6-1.6-3.6-3.9c0-1.2,0.4-2.7,1.5-3.4c1.2-0.8,2.6-1.2,4-1.5L193.5,15.8z
		"/>
	<path class="st1" d="M204.5,21.2c0.7,1.1,1.9,1.8,3.3,1.8c3,0,3.7-3.2,3.7-5.6c0-2.6-1.1-5-4-5c-1.2,0-2.4,0.6-3,1.6V21.2z
		 M200.6,14.4c0-1.8-0.1-2.2-0.8-2.2l-1.4-0.1v-1.2c1.2-0.2,2.4-0.3,3.6-0.7l2.2-0.7l0.3,0.2v2.6l2-1.6c0.8-0.6,1.7-1.2,3.3-1.2
		c3.4,0,5.8,2.6,5.8,6c0,1.3-0.3,2.6-0.7,3.7c-0.5,1.4-1.5,2.5-2.3,3.1c-0.8,0.6-1.6,1.3-2.5,1.9c-1.1,0.7-1.9,1-2.6,1
		c-1,0-2-0.3-2.9-0.5v5c0,0.8,0,1.2,0.1,1.5c0.1,0.3,0.4,0.5,1,0.5l1.4,0.1v1.2c-1.7,0-3-0.1-4.7-0.1c-1.4,0-2.8,0.1-4.1,0.1v-1.2
		l1.1-0.1c0.7-0.1,0.9-0.2,1-0.5c0.1-0.3,0.1-0.7,0.1-1.5V14.4z"/>
	<path class="st1" d="M221.8,21.2c0.7,1.1,1.9,1.8,3.3,1.8c3,0,3.7-3.2,3.7-5.6c0-2.6-1.1-5-4-5c-1.2,0-2.4,0.6-3,1.6V21.2z
		 M217.9,14.4c0-1.8-0.1-2.2-0.8-2.2l-1.4-0.1v-1.2c1.2-0.2,2.4-0.3,3.6-0.7l2.2-0.7l0.3,0.2v2.6l2-1.6c0.8-0.6,1.7-1.2,3.3-1.2
		c3.4,0,5.8,2.6,5.8,6c0,1.3-0.3,2.6-0.7,3.7c-0.5,1.4-1.5,2.5-2.3,3.1c-0.8,0.6-1.6,1.3-2.5,1.9c-1.1,0.7-1.9,1-2.6,1
		c-1,0-2-0.3-2.9-0.5v5c0,0.8,0,1.2,0.1,1.5c0.1,0.3,0.4,0.5,1,0.5l1.4,0.1v1.2c-1.7,0-3-0.1-4.7-0.1c-1.4,0-2.8,0.1-4.1,0.1v-1.2
		l1.1-0.1c0.7-0.1,0.9-0.2,1-0.5c0.1-0.3,0.1-0.7,0.1-1.5V14.4z"/>
	<path class="st1" d="M241.5,17.2l-1.4,0.4c-1.7,0.5-3,0.8-3,2.9c0,1.3,0.8,1.9,1.7,1.9s2.3-0.8,2.7-1.4V17.2z M241.5,15.8
		c0-2.2-0.9-3.8-3.3-3.8c-0.5,0-1.7,0.2-1.8,0.4l-0.7,1.6l-1-0.2v-2.2l1.7-1c1.4-0.8,2.7-1.1,3.7-1.1c2.8,0,5.4,1.3,5.3,4.7
		c0,1.3-0.1,2.6-0.1,3.9c0,1.3,0.1,2.7,0.1,4c0,0.8,0.2,1.2,0.9,1.3l1,0.1v1.2c-1,0-1.9-0.1-2.8-0.1c-0.9,0-1.8,0.1-2.9,0.1
		l-0.2-0.3l0.2-2l-3,2.3c-0.5,0.4-1.2,0.4-1.8,0.4c-2.4,0-3.6-1.6-3.6-3.9c0-1.2,0.4-2.7,1.5-3.4c1.2-0.8,2.6-1.2,4-1.5L241.5,15.8z
		"/>
</g>
</svg>
